<svg xmlns="http://www.w3.org/2000/svg" xmlns:xlink="http://www.w3.org/1999/xlink" viewBox="0 0 414.48 414.52"><defs><style>.cls-1,.cls-12{fill:none;}.cls-2{clip-path:url(#clip-path);}.cls-3{fill:#39b7bb;}.cls-4{fill:#4cb277;}.cls-5{fill:#f5a730;}.cls-6{fill:#ee793e;}.cls-7{fill:#ea5c9c;}.cls-8{fill:#e8466e;}.cls-9{fill:#4f4281;}.cls-10{fill:#0f4495;}.cls-11{fill:#fff;}.cls-12{stroke:#1d1d1b;stroke-linecap:round;stroke-linejoin:round;stroke-width:1.37px;}</style><clipPath id="clip-path" transform="translate(-2.43 -2.41)"><rect class="cls-1" width="417.25" height="434.99"/></clipPath></defs><g id="Layer_2" data-name="Layer 2"><g id="Layer_1-2" data-name="Layer 1"><g class="cls-2"><path class="cls-3" d="M63.67,62.86,210,206.82V410.55h.19V3.09A208.16,208.16,0,0,0,63.67,62.86" transform="translate(-2.43 -2.41)"/><path class="cls-4" d="M3.11,210.08H210L63.67,63.23A207.52,207.52,0,0,0,3.11,210.08" transform="translate(-2.43 -2.41)"/><path class="cls-5" d="M63.28,355.77,210,210.08H3.11A205.88,205.88,0,0,0,63.28,355.77" transform="translate(-2.43 -2.41)"/><path class="cls-6" d="M63.67,355.37A206,206,0,0,0,210,416.24V210.08Z" transform="translate(-2.43 -2.41)"/><path class="cls-7" d="M416.22,210.08h-206v.48L355.63,357a207.42,207.42,0,0,0,60.59-146.89" transform="translate(-2.43 -2.41)"/><path class="cls-8" d="M355.38,356.09,210.19,210.55V416.24a204.77,204.77,0,0,0,145.19-60.15" transform="translate(-2.43 -2.41)"/><path class="cls-9" d="M355.24,63.23l-145,146.22v.63h206a206.54,206.54,0,0,0-61-146.85" transform="translate(-2.43 -2.41)"/><path class="cls-10" d="M210.19,3.09V209.47L355.38,63.1a205.18,205.18,0,0,0-145.19-60" transform="translate(-2.43 -2.41)"/><path class="cls-11" d="M209.06,209,79.5,79.47S133.31,24.86,209.06,25.8Z" transform="translate(-2.43 -2.41)"/><path class="cls-11" d="M209.75,209.72H26.52S24.85,130.3,80.19,80.15Z" transform="translate(-2.43 -2.41)"/><path class="cls-11" d="M209.83,209.72,80.27,339.28s-57.34-55-53.67-129.56Z" transform="translate(-2.43 -2.41)"/><path class="cls-11" d="M209.66,209.72V393s-79.41,1.67-129.56-53.67Z" transform="translate(-2.43 -2.41)"/><path class="cls-11" d="M209.66,209.72,339.23,339.28s-54,57.35-129.57,53.67Z" transform="translate(-2.43 -2.41)"/><path class="cls-11" d="M209.66,209.72H392.9s5,70.85-53.67,129.56Z" transform="translate(-2.43 -2.41)"/><path class="cls-11" d="M209.66,209.72,339.23,80.15s56.42,54.13,53.67,129.57Z" transform="translate(-2.43 -2.41)"/><path class="cls-11" d="M209.66,209.72,339.23,80.15S293.76,27.21,209.66,26.48Z" transform="translate(-2.43 -2.41)"/><path class="cls-12" d="M80.19,80.15,63.67,63.23M26.6,209.72l-23.49.36m77,129.2L63.67,355.37m146,37.58.35,23.29m129.22-77,16.15,16.81M392.9,209.72h23.32m-77-129.57L355.38,63.1M209.66,26.48l.53-23.39M249,209a38.67,38.67,0,1,1-38.66-38.66A38.66,38.66,0,0,1,249,209ZM80.1,339.28,339.23,80.15m-259.13,0L339.23,339.28M26.43,209.72H392.9M209.66,393V26.48m78.49,183.24A77.17,77.17,0,1,1,211,132.55,77.17,77.17,0,0,1,288.15,209.72ZM326.31,211a116,116,0,1,1-116-116A116,116,0,0,1,326.31,211Zm34.22-.54A150.19,150.19,0,1,1,210.35,60.32,150.18,150.18,0,0,1,360.53,210.5Zm32.37-.78c0,101.19-82,183.23-183.24,183.23s-183.23-82-183.23-183.23,82-183.24,183.23-183.24A183.24,183.24,0,0,1,392.9,209.72Z" transform="translate(-2.43 -2.41)"/></g></g></g></svg>