<svg xmlns="http://www.w3.org/2000/svg" xmlns:xlink="http://www.w3.org/1999/xlink" viewBox="0 0 414.48 414.52"><defs><style>.cls-1,.cls-12{fill:none;}.cls-2{clip-path:url(#clip-path);}.cls-3{fill:#39b7bb;}.cls-4{fill:#4cb277;}.cls-5{fill:#f5a730;}.cls-6{fill:#ee793e;}.cls-7{fill:#ea5c9c;}.cls-8{fill:#e8466e;}.cls-9{fill:#4f4281;}.cls-10{fill:#0f4495;}.cls-11,.cls-13,.cls-14,.cls-15,.cls-16,.cls-17,.cls-18,.cls-19,.cls-20,.cls-21,.cls-22,.cls-23,.cls-24,.cls-25,.cls-26,.cls-27,.cls-28,.cls-29,.cls-30,.cls-31,.cls-32,.cls-33,.cls-34,.cls-35,.cls-36,.cls-37,.cls-38,.cls-39,.cls-40,.cls-41,.cls-42,.cls-43,.cls-44,.cls-45,.cls-46,.cls-47,.cls-48,.cls-49,.cls-50,.cls-51,.cls-52,.cls-53,.cls-54,.cls-55,.cls-56,.cls-57,.cls-58,.cls-59,.cls-60,.cls-61,.cls-62,.cls-63,.cls-64,.cls-65,.cls-66,.cls-67,.cls-68,.cls-69,.cls-70,.cls-71,.cls-72,.cls-73{fill:#fff;}.cls-12{stroke:#1d1d1b;stroke-linecap:round;stroke-linejoin:round;stroke-width:1.37px;}.cls-13{font-size:12.3px;}.cls-13,.cls-14,.cls-15,.cls-16,.cls-17,.cls-18,.cls-19,.cls-20,.cls-21,.cls-22,.cls-23,.cls-24,.cls-25,.cls-26,.cls-27,.cls-28,.cls-29,.cls-30,.cls-31,.cls-32,.cls-33,.cls-34,.cls-35,.cls-36,.cls-37,.cls-38,.cls-39,.cls-40,.cls-41,.cls-42,.cls-43,.cls-44,.cls-45,.cls-46,.cls-47,.cls-48,.cls-49,.cls-50,.cls-51,.cls-52,.cls-53,.cls-54,.cls-55,.cls-56,.cls-57,.cls-58,.cls-59,.cls-60,.cls-61,.cls-62,.cls-63,.cls-64,.cls-65,.cls-66,.cls-67,.cls-68,.cls-69,.cls-70,.cls-71,.cls-72,.cls-73{font-family:FilsonProBlack, Filson Pro;}.cls-14{font-size:12.3px;}.cls-15{font-size:12.3px;}.cls-16{font-size:12.3px;}.cls-17{font-size:12.3px;}.cls-18{font-size:12.3px;}.cls-19{font-size:12.3px;}.cls-20{font-size:12.3px;}.cls-21{font-size:12.3px;}.cls-22{font-size:12.3px;}.cls-23{font-size:12.3px;}.cls-24{font-size:12.3px;}.cls-25{font-size:12.3px;}.cls-26{font-size:12.3px;}.cls-27{font-size:12.3px;}.cls-28{font-size:12.3px;}.cls-29{font-size:12.3px;}.cls-30{font-size:12.3px;}.cls-31{font-size:12.3px;}.cls-32{font-size:12.3px;}.cls-33{font-size:12.3px;}.cls-34{font-size:12.3px;}.cls-35{font-size:12.3px;}.cls-36{font-size:12.3px;}.cls-37{font-size:12.3px;}.cls-38{font-size:12.3px;}.cls-39{font-size:12.3px;}.cls-40{font-size:12.3px;}.cls-41{font-size:12.3px;}.cls-42{font-size:12.3px;}.cls-43{font-size:12.3px;}.cls-44{font-size:12.3px;}.cls-45{font-size:12.3px;}.cls-46{font-size:12.3px;}.cls-47{font-size:12.3px;}.cls-48{font-size:12.3px;}.cls-49{font-size:12.3px;}.cls-50{font-size:12.3px;}.cls-51{font-size:12.3px;}.cls-52{font-size:12.3px;}.cls-53{font-size:12.3px;}.cls-54{font-size:12.3px;}.cls-55{font-size:12.3px;}.cls-56{font-size:12.3px;}.cls-57{font-size:12.3px;}.cls-58{font-size:12.3px;}.cls-59{font-size:12.3px;}.cls-60{font-size:12.3px;}.cls-61{font-size:12.3px;}.cls-62{font-size:12.3px;}.cls-63{font-size:12.3px;}.cls-64{font-size:12.3px;}.cls-65{font-size:12.3px;}.cls-66{font-size:12.3px;}.cls-67{font-size:12.3px;}.cls-68{font-size:12.3px;}.cls-69{font-size:12.3px;}.cls-70{font-size:12.3px;}.cls-71{font-size:12.3px;}.cls-72{font-size:12.3px;}.cls-73{font-size:12.3px;}.cls-74,.cls-76{font-size:8.88px;fill:#1d1d1b;font-family:FilsonProBook, Filson Pro;}.cls-75{letter-spacing:3.79em;}.cls-76{letter-spacing:3.05em;}.cls-77{letter-spacing:0em;}</style><clipPath id="clip-path" transform="translate(-2.43 -2.41)"><rect class="cls-1" width="417.25" height="434.99"/></clipPath></defs><g id="Layer_2" data-name="Layer 2"><g id="Layer_1-2" data-name="Layer 1"><g class="cls-2"><path class="cls-3" d="M63.67,62.86,210,206.82V410.55h.19V3.09A208.16,208.16,0,0,0,63.67,62.86" transform="translate(-2.43 -2.41)"/><path class="cls-4" d="M3.11,210.08H210L63.67,63.23A207.52,207.52,0,0,0,3.11,210.08" transform="translate(-2.43 -2.41)"/><path class="cls-5" d="M63.28,355.77,210,210.08H3.11A205.88,205.88,0,0,0,63.28,355.77" transform="translate(-2.43 -2.41)"/><path class="cls-6" d="M63.67,355.37A206,206,0,0,0,210,416.24V210.08Z" transform="translate(-2.43 -2.41)"/><path class="cls-7" d="M416.22,210.08h-206v.48L355.63,357a207.42,207.42,0,0,0,60.59-146.89" transform="translate(-2.43 -2.41)"/><path class="cls-8" d="M355.38,356.09,210.19,210.55V416.24a204.77,204.77,0,0,0,145.19-60.15" transform="translate(-2.43 -2.41)"/><path class="cls-9" d="M355.24,63.23l-145,146.22v.63h206a206.54,206.54,0,0,0-61-146.85" transform="translate(-2.43 -2.41)"/><path class="cls-10" d="M210.19,3.09V209.47L355.38,63.1a205.18,205.18,0,0,0-145.19-60" transform="translate(-2.43 -2.41)"/><path class="cls-11" d="M209.06,209,79.5,79.47S133.31,24.86,209.06,25.8Z" transform="translate(-2.43 -2.41)"/><path class="cls-11" d="M209.75,209.72H26.52S24.85,130.3,80.19,80.15Z" transform="translate(-2.43 -2.41)"/><path class="cls-11" d="M209.83,209.72,80.27,339.28s-57.34-55-53.67-129.56Z" transform="translate(-2.43 -2.41)"/><path class="cls-11" d="M209.66,209.72V393s-79.41,1.67-129.56-53.67Z" transform="translate(-2.43 -2.41)"/><path class="cls-11" d="M209.66,209.72,339.23,339.28s-54,57.35-129.57,53.67Z" transform="translate(-2.43 -2.41)"/><path class="cls-11" d="M209.66,209.72H392.9s5,70.85-53.67,129.56Z" transform="translate(-2.43 -2.41)"/><path class="cls-11" d="M209.66,209.72,339.23,80.15s56.42,54.13,53.67,129.57Z" transform="translate(-2.43 -2.41)"/><path class="cls-11" d="M209.66,209.72,339.23,80.15S293.76,27.21,209.66,26.48Z" transform="translate(-2.43 -2.41)"/><path class="cls-12" d="M80.19,80.15,63.67,63.23M26.6,209.72l-23.49.36m77,129.2L63.67,355.37m146,37.58.35,23.29m129.22-77,16.15,16.81M392.9,209.72h23.32m-77-129.57L355.38,63.1M209.66,26.48l.53-23.39M249,209a38.67,38.67,0,1,1-38.66-38.66A38.66,38.66,0,0,1,249,209ZM80.1,339.28,339.23,80.15m-259.13,0L339.23,339.28M26.43,209.72H392.9M209.66,393V26.48m78.49,183.24A77.17,77.17,0,1,1,211,132.55,77.17,77.17,0,0,1,288.15,209.72ZM326.31,211a116,116,0,1,1-116-116A116,116,0,0,1,326.31,211Zm34.22-.54A150.19,150.19,0,1,1,210.35,60.32,150.18,150.18,0,0,1,360.53,210.5Zm32.37-.78c0,101.19-82,183.23-183.24,183.23s-183.23-82-183.23-183.23,82-183.24,183.23-183.24A183.24,183.24,0,0,1,392.9,209.72Z" transform="translate(-2.43 -2.41)"/></g><text class="cls-13" transform="matrix(0.85, -0.53, 0.53, 0.85, 103.09, 49.9)">U</text><text class="cls-14" transform="matrix(0.87, -0.49, 0.49, 0.87, 110.86, 45.1)">T</text><text class="cls-15" transform="translate(117.88 41.15) rotate(-26.91)">V</text><text class="cls-16" transform="translate(125.89 37.11) rotate(-24.41)">E</text><text class="cls-17" transform="translate(132.98 33.88) rotate(-21.88)">C</text><text class="cls-18" transform="translate(141.27 30.56) rotate(-19.05)">K</text><text class="cls-19" transform="translate(149.82 27.63) rotate(-16.31)">L</text><text class="cls-20" transform="matrix(0.97, -0.23, 0.23, 0.97, 157.3, 25.44)">A</text><text class="cls-21" transform="matrix(0.98, -0.18, 0.18, 0.98, 166.09, 23.35)">S</text><text class="cls-15" transform="matrix(0.97, 0.26, -0.26, 0.97, 253.01, 24.68)">O</text><text class="cls-22" transform="translate(262.98 27.32) rotate(18.08)">M</text><text class="cls-14" transform="translate(273.99 30.97) rotate(21.03)">S</text><text class="cls-23" transform="translate(281.52 33.84) rotate(23.89)">O</text><text class="cls-24" transform="translate(290.94 38.04) rotate(27.03)">R</text><text class="cls-13" transform="matrix(0.87, 0.5, -0.5, 0.87, 298.99, 42.15)">G</text><text class="cls-25" transform="matrix(0.52, 0.85, -0.85, 0.52, 367.02, 104.31)">T</text><text class="cls-26" transform="translate(371.23 111.17) rotate(60.93)">R</text><text class="cls-27" transform="translate(375.32 118.49) rotate(63.47)">Y</text><text class="cls-28" transform="matrix(0.4, 0.91, -0.91, 0.4, 379.4, 126.65)">G</text><text class="cls-17" transform="matrix(0.36, 0.93, -0.93, 0.36, 383.21, 135.27)">G</text><text class="cls-29" transform="matrix(0.31, 0.95, -0.95, 0.31, 386.55, 144.04)">H</text><text class="cls-30" transform="translate(389.48 153.18) rotate(74.99)">E</text><text class="cls-31" transform="translate(391.51 160.79) rotate(77.71)">T</text><text class="cls-32" transform="matrix(0.49, -0.87, 0.87, 0.49, 376.65, 310.64)">M</text><text class="cls-33" transform="translate(382.5 300.12) rotate(-64.15)">Å</text><text class="cls-34" transform="translate(386.44 291.85) rotate(-66.07)"> </text><text class="cls-35" transform="translate(387.85 288.76) rotate(-68)">B</text><text class="cls-36" transform="matrix(0.33, -0.94, 0.94, 0.33, 391.25, 280.32)">R</text><text class="cls-37" transform="translate(394.38 271.28) rotate(-73.61)">A</text><text class="cls-38" transform="translate(259.85 399.18) rotate(-16.55)">F</text><text class="cls-39" transform="translate(267.57 396.89) rotate(-19.42)">R</text><text class="cls-40" transform="translate(276.53 393.66) rotate(-21.69)">I</text><text class="cls-41" transform="translate(280.96 391.92) rotate(-23.71)">T</text><text class="cls-42" transform="translate(288.56 388.54) rotate(-25.68)">I</text><text class="cls-43" transform="matrix(0.88, -0.47, 0.47, 0.88, 292.89, 386.5)">D</text><text class="cls-44" transform="translate(86.69 364.42) rotate(38.71)">T</text><text class="cls-45" transform="matrix(0.81, 0.59, -0.59, 0.81, 93.25, 369.61)">I</text><text class="cls-46" transform="matrix(0.83, 0.56, -0.56, 0.83, 97.09, 372.46)">L</text><text class="cls-47" transform="translate(103.86 377.02) rotate(31.3)">L</text><text class="cls-48" transform="translate(110.86 381.28) rotate(28.28)">H</text><text class="cls-49" transform="translate(119.65 385.99) rotate(24.95)">Ö</text><text class="cls-50" transform="translate(129.39 390.48) rotate(21.8)">R</text><text class="cls-51" transform="matrix(0.94, 0.34, -0.34, 0.94, 138.24, 393.96)">I</text><text class="cls-52" transform="matrix(0.95, 0.3, -0.3, 0.95, 142.71, 395.59)">G</text><text class="cls-53" transform="matrix(0.97, 0.25, -0.25, 0.97, 152.03, 398.51)">H</text><text class="cls-54" transform="translate(161.62 400.99) rotate(12.14)">E</text><text class="cls-20" transform="translate(169.65 402.71) rotate(9.77)">T</text><text class="cls-55" transform="translate(10.56 222.53) rotate(86.56)">A</text><text class="cls-23" transform="matrix(0.12, 0.99, -0.99, 0.12, 11.16, 232.21)">N</text><text class="cls-56" transform="matrix(0.18, 0.98, -0.98, 0.18, 12.39, 241.88)">S</text><text class="cls-57" transform="translate(13.82 249.79) rotate(76.79)">V</text><text class="cls-58" transform="translate(15.7 257.87) rotate(73.91)">A</text><text class="cls-59" transform="matrix(0.33, 0.94, -0.94, 0.33, 18.4, 267.15)">R</text><text class="cls-60" transform="translate(21.56 276.08) rotate(67.87)">S</text><text class="cls-61" transform="translate(24.7 283.76) rotate(65.3)">T</text><text class="cls-62" transform="translate(27.74 290.42) rotate(62.91)">A</text><text class="cls-63" transform="translate(31.95 298.62) rotate(60.2)">G</text><text class="cls-53" transform="matrix(0.54, 0.84, -0.84, 0.54, 36.69, 306.87)">A</text><text class="cls-64" transform="translate(41.88 314.99) rotate(54.75)">N</text><text class="cls-35" transform="translate(47.49 322.91) rotate(51.88)">D</text><text class="cls-65" transform="matrix(0.66, 0.75, -0.75, 0.66, 53.85, 330.95)">E</text><text class="cls-66" transform="translate(20.58 180.1) rotate(-80.55)">R</text><text class="cls-28" transform="translate(22.11 170.99) rotate(-78.12)">E</text><text class="cls-67" transform="translate(23.75 163.25) rotate(-75.85)">S</text><text class="cls-68" transform="matrix(0.29, -0.96, 0.96, 0.29, 25.72, 155.43)">P</text><text class="cls-69" transform="matrix(0.33, -0.95, 0.95, 0.33, 28.2, 147.15)">E</text><text class="cls-70" transform="matrix(0.37, -0.93, 0.93, 0.37, 30.77, 139.67)">K</text><text class="cls-28" transform="translate(34.11 131.29) rotate(-65.73)">T</text><text class="cls-71" transform="translate(37.42 123.97) rotate(-63.15)">E</text><text class="cls-72" transform="translate(40.99 116.9) rotate(-60.29)">R</text><text class="cls-73" transform="matrix(0.54, -0.84, 0.84, 0.54, 45.56, 108.92)">A</text><text class="cls-72" transform="matrix(0.59, -0.81, 0.81, 0.59, 50.46, 101.36)">S</text><text class="cls-74" transform="translate(228.48 203.66)">1</text><text class="cls-74" transform="translate(263.43 203.39)"><tspan class="cls-75">2</tspan><tspan x="39.01" y="0">3</tspan></text><text class="cls-76" transform="translate(338.52 203.39)">4<tspan class="cls-77" x="33.04" y="0">5</tspan></text></g></g></svg>